<svg t="1664465780186" class="icon" viewBox="0 0 1024 1024" version="1.1" xmlns="http://www.w3.org/2000/svg" p-id="2624" width="128" height="128"><path d="M500.945455 503.389091L177.408 256h666.112l-342.574545 247.389091zM846.615273 768H163.979636l215.598546-269.498182L465.454545 564.130909c10.472727 8.029091 22.877091 12.055273 35.281455 12.055273 11.915636 0 23.831273-3.723636 34.094545-11.124364l94.72-68.421818L846.615273 768zM116.363636 297.192727l207.732364 158.882909L116.363636 715.752727V297.192727zM942.545455 535.272727a34.909091 34.909091 0 0 0 34.90909-34.909091V256a69.818182 69.818182 0 0 0-69.818181-69.818182H116.363636a69.818182 69.818182 0 0 0-69.818181 69.818182v512a69.818182 69.818182 0 0 0 69.818181 69.818182h791.272728a69.818182 69.818182 0 0 0 69.818181-69.818182v-104.727273a34.909091 34.909091 0 0 0-69.818181 0v69.213091l-221.416728-276.759273L907.636364 295.796364V500.363636a34.909091 34.909091 0 0 0 34.909091 34.909091z" p-id="2625"></path></svg>